<svg width="376" height="347" viewBox="0 0 376 347" fill="none" xmlns="http://www.w3.org/2000/svg">
<path d="M0 85C0 38.0558 38.0558 0 85 0V0V172V172C38.0558 172 0 133.944 0 87V85Z" fill="#E6E6E6"/>
<path d="M172 258.5C172 306.273 132.773 345 85 345V345L85 172V172C132.773 172 172 210.727 172 258.5V258.5Z" fill="#E6E6E6"/>
<path d="M203.719 52.4435L202.079 48.7834L198.364 47.2709L152.851 28.7384L129.759 19.3355L139.954 42.089L253.26 294.962L254.9 298.622L258.614 300.134L304.129 318.667L327.221 328.07L317.026 305.317L260.372 178.88L203.719 52.4435Z" fill="#FFE605" stroke="#FFE605" stroke-width="20"/>
</svg>
