<svg width="309" height="91" viewBox="0 0 309 91" fill="none" xmlns="http://www.w3.org/2000/svg">
<path d="M63.25 46.3125L89.8125 47C88.0625 60.75 83.2917 71.375 75.5 78.875C67.75 86.375 57.625 90.125 45.125 90.125C32.4167 90.125 21.7708 85.875 13.1875 77.375C4.64583 68.8333 0.375 58.25 0.375 45.625C0.375 32.9167 4.72917 22.2292 13.4375 13.5625C22.1875 4.89583 32.9583 0.5625 45.75 0.5625C58.3333 0.5625 68.8333 4.8125 77.25 13.3125C83.0833 19.1875 87.2083 27.375 89.625 37.875L62.4375 39.6875C59.3958 30.3542 53.625 25.6875 45.125 25.6875C39.7083 25.6875 35.2292 27.5625 31.6875 31.3125C28.1875 35.0625 26.4375 39.8333 26.4375 45.625C26.4375 51.2083 28.1667 55.8333 31.625 59.5C35.0833 63.125 39.4583 64.9375 44.75 64.9375C50.125 64.9375 54.3958 63.3333 57.5625 60.125C60.7708 56.9167 62.6667 52.3125 63.25 46.3125Z" fill="#0E0E0E"/>
<path d="M99.0275 25.625V88H73.6525V2.6875H106.215C116.132 2.6875 123.819 5.14583 129.277 10.0625C135.361 15.5625 138.402 22.5417 138.402 31C138.402 39.625 134.632 46.8958 127.09 52.8125L141.715 88H115.09L102.777 60.5V38.5625H104.777C110.111 38.5625 112.777 36.2708 112.777 31.6875C112.777 27.6458 109.694 25.625 103.527 25.625H99.0275Z" fill="#979797"/>
<path d="M167.618 35.875V54.875H151.055C148.805 54.875 147.201 55.2083 146.243 55.875C145.326 56.5417 144.868 57.6667 144.868 59.25C144.868 61.0417 145.347 62.2292 146.305 62.8125C147.263 63.3542 149.222 63.625 152.18 63.625H169.243V88H149.305C139.93 88 132.763 85.7708 127.805 81.3125C122.847 76.8125 120.368 70.3333 120.368 61.875V28.4375C120.368 20.2708 122.701 13.9375 127.368 9.4375C132.076 4.9375 138.68 2.6875 147.18 2.6875H169.243V27.1875H153.055C148.68 27.1875 146.493 28.6042 146.493 31.4375C146.493 33.1042 147.013 34.2708 148.055 34.9375C149.097 35.5625 150.951 35.875 153.618 35.875H167.618Z" fill="#474747"/>
<path d="M190.485 45.1875V67.6875H183.173V88H157.798V33.75C157.798 23.25 160.652 15.1042 166.36 9.3125C172.11 3.47917 180.173 0.5625 190.548 0.5625C200.548 0.5625 207.943 3.20833 212.735 8.5C217.527 13.75 219.923 21.875 219.923 32.875V88H194.548V34.5625C194.548 31.2292 194.152 28.9167 193.36 27.625C192.568 26.3333 191.152 25.6875 189.11 25.6875C185.152 25.6875 183.173 28.6458 183.173 34.5625V45.1875H190.485Z" fill="#1F1F1F"/>
<path d="M244.262 27.1875V88H218.887V27.1875H199.45V2.6875H263.637V27.1875H244.262Z" fill="#4E4E4E"/>
<path d="M290.353 35.875V54.875H273.79C271.54 54.875 269.936 55.2083 268.978 55.875C268.061 56.5417 267.603 57.6667 267.603 59.25C267.603 61.0417 268.082 62.2292 269.04 62.8125C269.998 63.3542 271.957 63.625 274.915 63.625H291.978V88H272.04C262.665 88 255.498 85.7708 250.54 81.3125C245.582 76.8125 243.103 70.3333 243.103 61.875V28.4375C243.103 20.2708 245.436 13.9375 250.103 9.4375C254.811 4.9375 261.415 2.6875 269.915 2.6875H291.978V27.1875H275.79C271.415 27.1875 269.228 28.6042 269.228 31.4375C269.228 33.1042 269.748 34.2708 270.79 34.9375C271.832 35.5625 273.686 35.875 276.353 35.875H290.353Z" fill="#858585"/>
<path d="M294.005 60C298.088 60 301.588 61.4792 304.505 64.4375C307.463 67.3958 308.943 70.9167 308.943 75C308.943 79.0833 307.484 82.5625 304.568 85.4375C301.651 88.2708 298.13 89.6875 294.005 89.6875C289.713 89.6875 286.172 88.3125 283.38 85.5625C280.63 82.7708 279.255 79.2292 279.255 74.9375C279.255 70.7708 280.693 67.25 283.568 64.375C286.443 61.4583 289.922 60 294.005 60Z" fill="black"/>
</svg>
